<?xml version="1.0" encoding="utf-8"?>
<!-- Generator: Adobe Illustrator 16.0.0, SVG Export Plug-In . SVG Version: 6.00 Build 0)  -->
<!DOCTYPE svg PUBLIC "-//W3C//DTD SVG 1.0//EN" "http://www.w3.org/TR/2001/REC-SVG-20010904/DTD/svg10.dtd">
<svg version="1.0" id="Layer_1" xmlns="http://www.w3.org/2000/svg" xmlns:xlink="http://www.w3.org/1999/xlink" x="0px" y="0px"
	 width="30px" height="30px" viewBox="0 0 30 30" enable-background="new 0 0 30 30" xml:space="preserve">
<g id="_x35_ntL71.tif">
	<g>
		<path d="M22.127,29.128c-1.198-0.301-2.431-0.518-3.596-0.925c-3.245-1.134-6.029-3.05-8.545-5.352
			c-2.351-2.151-4.516-4.48-6.305-7.13c-1.785-2.645-2.897-5.495-2.629-8.764C1.24,4.65,2.279,2.805,4.07,1.384
			c0.865-0.685,2.059-0.619,2.857,0.155C8.434,3,9.922,4.482,11.379,5.993c0.84,0.872,0.82,2.113-0.016,3.048
			c-0.622,0.697-1.298,1.347-1.971,1.996c-0.239,0.229-0.25,0.406-0.099,0.693c2.151,4.104,5.296,7.199,9.421,9.299
			c0.035,0.018,0.079,0.022,0.201,0.053c0.623-0.632,1.273-1.298,1.938-1.954c1.221-1.212,2.479-1.208,3.697,0.009
			c1.294,1.291,2.59,2.585,3.879,3.883c1.123,1.13,1.097,2.406,0.026,3.574c-1.223,1.333-2.735,2.107-4.458,2.534
			C23.374,29.128,22.751,29.128,22.127,29.128z"/>
	</g>
</g>
</svg>
